<svg width="18" height="18" viewBox="0 0 18 18" fill="none" xmlns="http://www.w3.org/2000/svg">
<path d="M9 0.53125C4.18359 0.53125 0.28125 4.43359 0.28125 9.25C0.28125 14.0664 4.18359 17.9688 9 17.9688C13.8164 17.9688 17.7188 14.0664 17.7188 9.25C17.7188 4.43359 13.8164 0.53125 9 0.53125ZM9 16.2812C5.09766 16.2812 1.96875 13.1523 1.96875 9.25C1.96875 5.38281 5.09766 2.21875 9 2.21875C12.8672 2.21875 16.0312 5.38281 16.0312 9.25C16.0312 13.1523 12.8672 16.2812 9 16.2812ZM12.5508 7.07031C12.7266 6.92969 12.7266 6.64844 12.5508 6.47266L11.7773 5.69922C11.6016 5.52344 11.3203 5.52344 11.1797 5.69922L9 7.87891L6.78516 5.69922C6.64453 5.52344 6.36328 5.52344 6.1875 5.69922L5.41406 6.47266C5.23828 6.64844 5.23828 6.92969 5.41406 7.07031L7.59375 9.25L5.41406 11.4648C5.23828 11.6055 5.23828 11.8867 5.41406 12.0625L6.1875 12.8359C6.36328 13.0117 6.64453 13.0117 6.78516 12.8359L9 10.6562L11.1797 12.8359C11.3203 13.0117 11.6016 13.0117 11.7773 12.8359L12.5508 12.0625C12.7266 11.8867 12.7266 11.6055 12.5508 11.4648L10.3711 9.25L12.5508 7.07031Z" fill="#F6FCFD"/>
</svg>
