<svg width="19" height="17" viewBox="0 0 19 17" fill="none" xmlns="http://www.w3.org/2000/svg">
<path d="M6.78125 14.4375H4.25C3.30078 14.4375 2.5625 13.6992 2.5625 12.75V3.75C2.5625 2.83594 3.30078 2.0625 4.25 2.0625H6.78125C7.23828 2.0625 7.625 1.71094 7.625 1.21875C7.625 0.761719 7.23828 0.375 6.78125 0.375H4.25C2.35156 0.375 0.875 1.88672 0.875 3.75V12.75C0.875 14.6484 2.35156 16.125 4.25 16.125H6.78125C7.23828 16.125 7.625 15.7734 7.625 15.2812C7.625 14.8242 7.23828 14.4375 6.78125 14.4375ZM18.5586 7.65234L13.2148 2.94141C12.8633 2.625 12.3711 2.55469 11.9492 2.73047C11.5273 2.94141 11.2812 3.32812 11.2812 3.78516V5.75391H7.0625C6.25391 5.75391 5.65625 6.35156 5.65625 7.16016V9.41016C5.65625 10.1836 6.25391 10.8164 7.0625 10.8164H11.2812V12.75C11.2812 13.207 11.5273 13.5938 11.9492 13.8047C12.0898 13.875 12.2656 13.9102 12.4414 13.9102C12.7227 13.9102 13.0039 13.8047 13.2148 13.5938L18.5586 8.91797C18.7695 8.74219 18.875 8.53125 18.875 8.28516C18.875 8.03906 18.7695 7.82812 18.5586 7.65234ZM12.9688 11.5547V9.09375H7.34375V7.40625H12.9688V4.94531L16.7305 8.25L12.9688 11.5547Z" fill="#888E8F"/>
</svg>
