<svg width="17" height="18" viewBox="0 0 17 18" fill="none" xmlns="http://www.w3.org/2000/svg">
<path d="M8.5 0.125C3.78516 0.125 0 3.94336 0 8.625C0 13.3398 3.78516 17.125 8.5 17.125C13.1816 17.125 17 13.3398 17 8.625C17 3.94336 13.1816 0.125 8.5 0.125ZM8.5 15.5312C4.68164 15.5312 1.59375 12.4434 1.59375 8.625C1.59375 4.83984 4.68164 1.71875 8.5 1.71875C12.2852 1.71875 15.4062 4.83984 15.4062 8.625C15.4062 12.4434 12.2852 15.5312 8.5 15.5312ZM9.82812 11.2812H9.29688V8.35938C9.29688 7.92773 8.93164 7.5625 8.5 7.5625H7.4375C6.97266 7.5625 6.64062 7.92773 6.64062 8.35938C6.64062 8.82422 6.97266 9.15625 7.4375 9.15625H7.70312V11.2812H7.17188C6.70703 11.2812 6.375 11.6465 6.375 12.0781C6.375 12.543 6.70703 12.875 7.17188 12.875H9.82812C10.2598 12.875 10.625 12.543 10.625 12.0781C10.625 11.6465 10.2598 11.2812 9.82812 11.2812ZM8.5 6.5C9.06445 6.5 9.5625 6.03516 9.5625 5.4375C9.5625 4.87305 9.06445 4.375 8.5 4.375C7.90234 4.375 7.4375 4.87305 7.4375 5.4375C7.4375 6.03516 7.90234 6.5 8.5 6.5Z" fill="#F6FCFD"/>
</svg>
