<svg width="14" height="9" viewBox="0 0 14 9" fill="none" xmlns="http://www.w3.org/2000/svg">
<path d="M13.1875 5.9375H0.8125C0.496094 5.9375 0.25 6.21875 0.25 6.5V7.625C0.25 7.94141 0.496094 8.1875 0.8125 8.1875H13.1875C13.4688 8.1875 13.75 7.94141 13.75 7.625V6.5C13.75 6.21875 13.4688 5.9375 13.1875 5.9375ZM13.1875 0.3125H0.8125C0.496094 0.3125 0.25 0.59375 0.25 0.875V2C0.25 2.31641 0.496094 2.5625 0.8125 2.5625H13.1875C13.4688 2.5625 13.75 2.31641 13.75 2V0.875C13.75 0.59375 13.4688 0.3125 13.1875 0.3125Z" fill="#F6FCFD"/>
</svg>
