<svg width="108" height="21" viewBox="0 0 108 21" fill="none" xmlns="http://www.w3.org/2000/svg">
<g id="Group 6356470">
<g id="Vector">
<path d="M96.7774 12.7151C96.7774 9.56449 98.8303 7.03079 102.384 7.03079C104.503 7.03079 107.218 8.22053 107.505 11.3932H105.673C105.364 9.30011 103.973 8.57305 102.384 8.57305C99.7794 8.57305 98.5875 10.4678 98.5875 12.7151C98.5875 14.9844 99.7794 16.8792 102.384 16.8792C103.973 16.8792 105.364 16.1521 105.673 14.0591H107.505C107.218 17.2317 104.503 18.4214 102.384 18.4214C98.8303 18.4214 96.7774 15.8877 96.7774 12.7151Z" fill="#FBFCFF"/>
<path d="M91.0412 5.49574C90.138 5.49574 89.4551 4.83506 89.4551 3.95414C89.4551 3.11728 90.138 2.43457 91.0412 2.43457C91.9224 2.43457 92.6273 3.11728 92.6273 3.95414C92.6273 4.83506 91.9224 5.49574 91.0412 5.49574ZM87.3843 18.3807V16.8391H90.4684V8.64554L88.1994 9.2608V7.7192L90.7328 7.08193C91.7682 6.99383 92.1647 7.56643 92.1647 8.40329V16.8391H95.2489V18.3807H87.3843Z" fill="#FBFCFF"/>
<path d="M81.2916 8.57237C78.9785 8.57237 77.3483 10.4003 77.3483 13.3513V18.3962H75.5418V7.04097H77.3483V9.14497L77.0619 10.4003H77.5686C78.0092 8.41821 79.397 7.04097 81.7763 7.04097C84.2436 7.04097 85.8518 8.46226 85.8518 11.5014V18.3962H84.0673V11.7437C84.0673 9.45329 83.1641 8.57237 81.2916 8.57237Z" fill="#FBFCFF"/>
<path d="M62.4657 12.7127C62.4657 9.54139 64.7568 7.03079 68.2595 7.03079C71.7402 7.03079 74.0093 9.54139 74.0093 12.7127C74.0093 15.906 71.7402 18.4166 68.2595 18.4166C64.7568 18.4166 62.4657 15.906 62.4657 12.7127ZM64.2721 12.7127C64.2721 15.003 65.66 16.875 68.2595 16.875C70.837 16.875 72.2248 15.003 72.2248 12.7127C72.2248 10.4443 70.837 8.57239 68.2595 8.57239C65.66 8.57239 64.2721 10.4443 64.2721 12.7127Z" fill="#FBFCFF"/>
<path d="M60.9331 14.2608C60.9331 16.5732 59.5452 18.4011 54.963 18.4011C49.5437 18.4011 47.9355 16.0006 47.9355 12.3669H49.742C49.742 16.0447 51.7026 16.8595 54.963 16.8595C57.6066 16.8595 59.1267 16.2208 59.1267 14.3489C59.1267 11.9925 56.395 11.508 53.9276 10.7812C50.8655 9.85625 48.6405 9.01939 48.6405 6.26654C48.6405 3.88807 50.3148 2.43457 54.1479 2.43457C58.7301 2.43457 60.2942 5.23147 60.2942 7.76409H58.4878C58.4878 5.12135 56.5271 3.97617 54.1479 3.97617C52.011 3.97617 50.4469 4.50471 50.4469 6.22249C50.4469 7.85218 51.8128 8.4468 54.3682 9.23962C57.4083 10.1866 60.9331 11.0235 60.9331 14.2608Z" fill="#FBFCFF"/>
</g>
<path id="Union" d="M1.39284 7.71607C0.21768 7.71607 -0.427361 6.34851 0.320087 5.44171L4.80553 0H17.8616C19.0399 0 19.6839 1.37392 18.9301 2.27951L16.8203 4.81408C16.0665 5.71968 16.7105 7.0936 17.8888 7.0936H35.5155C37.9218 7.0936 39.245 9.89145 37.7184 11.7514L30.3056 20.7829L18.385 20.8314C16.3267 20.8398 15.1887 18.4474 16.494 16.8559L22.127 9.9878C22.8712 9.08041 22.2257 7.71607 21.0521 7.71607H1.39284Z" fill="url(#paint0_linear_374_409)"/>
</g>
<defs>
<linearGradient id="paint0_linear_374_409" x1="19.8891" y1="2.69646e-06" x2="34.3803" y2="24.008" gradientUnits="userSpaceOnUse">
<stop stop-color="#00FE8E"/>
<stop offset="0.441925" stop-color="#07E992"/>
<stop offset="0.898675" stop-color="#1AE0BA"/>
</linearGradient>
</defs>
</svg>
