<svg width="18" height="18" viewBox="0 0 18 18" fill="none" xmlns="http://www.w3.org/2000/svg">
<path d="M17.7188 9.25C17.7188 4.43359 13.8164 0.53125 9 0.53125C4.18359 0.53125 0.28125 4.43359 0.28125 9.25C0.28125 14.0664 4.18359 17.9688 9 17.9688C13.8164 17.9688 17.7188 14.0664 17.7188 9.25ZM1.96875 9.25C1.96875 5.38281 5.09766 2.21875 9 2.21875C12.8672 2.21875 16.0312 5.38281 16.0312 9.25C16.0312 13.1523 12.8672 16.2812 9 16.2812C5.09766 16.2812 1.96875 13.1523 1.96875 9.25ZM8.61328 13.8203C8.75391 13.9961 9.03516 13.9961 9.21094 13.8203L9.87891 13.1523C10.0547 12.9766 10.0547 12.6953 9.87891 12.5547L7.41797 10.1641H13.0781C13.2891 10.1641 13.5 9.98828 13.5 9.74219V8.75781C13.5 8.54688 13.2891 8.33594 13.0781 8.33594H7.41797L9.87891 5.98047C10.0547 5.83984 10.0547 5.55859 9.87891 5.38281L9.21094 4.71484C9.03516 4.53906 8.75391 4.53906 8.61328 4.71484L4.32422 8.96875C4.18359 9.14453 4.18359 9.39062 4.32422 9.56641L8.61328 13.8203Z" fill="#F6FCFD"/>
</svg>
