<svg width="19" height="19" viewBox="0 0 19 19" fill="none" xmlns="http://www.w3.org/2000/svg">
<path d="M16.625 0.25H8.75C7.48438 0.25 6.5 1.26953 6.5 2.5V10.375C6.5 11.6406 7.48438 12.625 8.75 12.625H16.625C17.8555 12.625 18.875 11.6406 18.875 10.375V2.5C18.875 1.26953 17.8555 0.25 16.625 0.25ZM17.1875 10.375C17.1875 10.6914 16.9062 10.9375 16.625 10.9375H8.75C8.43359 10.9375 8.1875 10.6914 8.1875 10.375V2.5C8.1875 2.21875 8.43359 1.9375 8.75 1.9375H16.625C16.9062 1.9375 17.1875 2.21875 17.1875 2.5V10.375ZM11.5625 16C11.5625 16.3164 11.2812 16.5625 11 16.5625H3.125C2.80859 16.5625 2.5625 16.3164 2.5625 16V8.125C2.5625 7.84375 2.80859 7.5625 3.125 7.5625H5.375V5.875H3.125C1.85938 5.875 0.875 6.89453 0.875 8.125V16C0.875 17.2656 1.85938 18.25 3.125 18.25H11C12.2305 18.25 13.25 17.2656 13.25 16V13.75H11.5625V16Z" fill="#888E8F"/>
</svg>
