<svg width="18" height="19" viewBox="0 0 18 19" fill="none" xmlns="http://www.w3.org/2000/svg">
<path d="M16.3125 11.5H12.9375C12.5859 11.5 12.3047 11.7109 12.1641 11.9922L11.2852 13.75H6.67969L5.80078 11.9922C5.66016 11.7109 5.37891 11.5 5.0625 11.5H1.125C0.492188 11.5 0 12.0273 0 12.625V16C0 17.2656 0.984375 18.25 2.25 18.25H15.75C16.9805 18.25 18 17.2656 18 16V13.1875C18 12.2734 17.2266 11.5 16.3125 11.5ZM16.3125 16C16.3125 16.3164 16.0312 16.5625 15.75 16.5625H2.25C1.93359 16.5625 1.6875 16.3164 1.6875 16V13.1875H4.53516L5.41406 14.9805C5.55469 15.2617 5.83594 15.4375 6.1875 15.4375H11.8125C12.1289 15.4375 12.4102 15.2617 12.5508 14.9805L13.4297 13.1875H16.3125V16ZM8.36719 11.2539C8.50781 11.4297 8.75391 11.5 9 11.5C9.21094 11.5 9.45703 11.4297 9.59766 11.2539L13.2539 7.31641C13.5703 6.96484 13.5703 6.4375 13.2188 6.12109C12.8672 5.80469 12.3398 5.80469 12.0234 6.15625L9.84375 8.51172V1.09375C9.84375 0.636719 9.45703 0.25 9 0.25C8.50781 0.25 8.15625 0.636719 8.15625 1.09375V8.51172L5.94141 6.15625C5.625 5.80469 5.09766 5.80469 4.74609 6.12109C4.39453 6.4375 4.39453 6.96484 4.71094 7.31641L8.36719 11.2539Z" fill="#F6FCFD"/>
</svg>
