<svg width="14" height="19" viewBox="0 0 14 19" fill="none" xmlns="http://www.w3.org/2000/svg">
<path d="M8.01953 1.05859C7.87891 0.53125 7.42188 0.25 6.96484 0.25C6.54297 0.25 6.12109 0.53125 5.94531 1.05859C4.32812 6.57812 0.8125 8.08984 0.8125 11.9922C0.8125 15.4727 3.55469 18.25 7 18.25C10.4102 18.25 13.1875 15.4727 13.1875 11.9922C13.1875 8.08984 9.67188 6.61328 8.01953 1.05859ZM7 16.5625C4.50391 16.5625 2.5 14.5234 2.5 11.9922C2.5 10.4805 3.20312 9.42578 4.32812 7.87891C5.17188 6.64844 6.19141 5.20703 7 3.20312C7.80859 5.20703 8.82812 6.64844 9.67188 7.87891C10.7617 9.42578 11.5 10.4805 11.5 11.9922C11.5 14.5234 9.46094 16.5625 7 16.5625ZM7.5625 14.3125C5.98047 14.3125 4.75 13.082 4.75 11.5C4.75 11.2188 4.46875 10.9375 4.1875 10.9375C3.87109 10.9375 3.625 11.2188 3.625 11.5C3.625 13.6797 5.38281 15.4375 7.5625 15.4375C7.84375 15.4375 8.125 15.1562 8.125 14.875C8.125 14.5586 7.84375 14.3125 7.5625 14.3125Z" fill="white"/>
</svg>
