<svg width="14" height="19" viewBox="0 0 14 19" fill="none" xmlns="http://www.w3.org/2000/svg">
<path d="M0 5.44159C0 5.01973 0.341991 4.67773 0.763858 4.67773H12.3077C12.7295 4.67773 13.0715 5.01973 13.0715 5.44159V9.24656C13.0715 12.8562 10.1454 15.7823 6.53576 15.7823C2.92616 15.7823 0 12.8562 0 9.24656V5.44159Z" fill="#888E8F"/>
<path fill-rule="evenodd" clip-rule="evenodd" d="M12.554 11.799C11.5596 14.1398 9.23938 15.7814 6.53576 15.7814C2.92616 15.7814 0 12.8553 0 9.24567V6.49738C1.24136 5.81196 2.66858 5.42188 4.18691 5.42188C8.18238 5.42188 11.5469 8.12312 12.554 11.799Z" fill="#888E8F"/>
<path fill-rule="evenodd" clip-rule="evenodd" d="M10.9912 14.0327C9.82384 15.1209 8.25756 15.7867 6.53576 15.7867C2.92616 15.7867 0 12.8605 0 9.25094V8.55251C1.10617 7.86076 2.41362 7.46094 3.81445 7.46094C7.58011 7.46094 10.671 10.3501 10.9912 14.0327Z" fill="#888E8F"/>
<path fill-rule="evenodd" clip-rule="evenodd" d="M8.73479 15.4382C8.5988 12.4214 6.11904 10.0176 3.0799 10.0176C2.02363 10.0176 1.03494 10.308 0.188721 10.8135C0.71492 12.9693 2.30115 14.7074 4.36129 15.4395V15.8048C4.36129 16.3337 4.64545 16.796 5.06889 17.0463V18.0411C5.06889 18.5711 5.497 19.0008 6.0251 19.0008H7.06737C7.59547 19.0008 8.02358 18.5711 8.02358 18.0411V17.0463C8.44702 16.796 8.73118 16.3337 8.73118 15.8048V15.4395C8.73238 15.439 8.73359 15.4386 8.73479 15.4382Z" fill="#888E8F"/>
<path d="M2.43994 0.199999C2.43994 0.0895426 2.52948 0 2.63994 0H4.14737C4.25782 0 4.34737 0.0895431 4.34737 0.2V4.67658H2.43994V0.199999Z" fill="#888E8F"/>
<path d="M8.67542 0.199999C8.67542 0.0895426 8.76496 0 8.87542 0H10.3828C10.4933 0 10.5828 0.0895431 10.5828 0.2V4.67658H8.67542V0.199999Z" fill="#888E8F"/>
</svg>
