<svg width="14" height="14" viewBox="0 0 14 14" fill="none" xmlns="http://www.w3.org/2000/svg">
<path d="M6.125 0.8125V5.875H1.0625C0.78125 5.875 0.5 6.15625 0.5 6.4375V7.5625C0.5 7.87891 0.78125 8.125 1.0625 8.125H6.125V13.1875C6.125 13.5039 6.40625 13.75 6.6875 13.75H7.8125C8.12891 13.75 8.375 13.5039 8.375 13.1875V8.125H13.4375C13.7539 8.125 14 7.87891 14 7.5625V6.4375C14 6.15625 13.7539 5.875 13.4375 5.875L8.375 5.875V0.8125C8.375 0.53125 8.12891 0.25 7.8125 0.25H6.6875C6.40625 0.25 6.125 0.53125 6.125 0.8125Z" fill="#F6FCFD"/>
</svg>
