<svg width="19" height="19" viewBox="0 0 19 19" fill="none" xmlns="http://www.w3.org/2000/svg">
<path d="M9.875 0.25C4.88281 0.25 0.875 4.29297 0.875 9.25C0.875 14.2422 4.88281 18.25 9.875 18.25C14.832 18.25 18.875 14.2422 18.875 9.25C18.875 4.29297 14.832 0.25 9.875 0.25ZM9.03125 5.59375C9.03125 5.13672 9.38281 4.75 9.875 4.75C10.332 4.75 10.7188 5.13672 10.7188 5.59375V10.0938C10.7188 10.5859 10.332 10.9375 9.875 10.9375C9.38281 10.9375 9.03125 10.5859 9.03125 10.0938V5.59375ZM9.875 14.3125C9.24219 14.3125 8.75 13.8203 8.75 13.2227C8.75 12.625 9.24219 12.1328 9.875 12.1328C10.4727 12.1328 10.9648 12.625 10.9648 13.2227C10.9648 13.8203 10.4727 14.3125 9.875 14.3125Z" fill="#FF646D"/>
</svg>
