<svg width="27" height="23" viewBox="0 0 27 23" fill="none" xmlns="http://www.w3.org/2000/svg">
<path d="M25.7562 19.6992L15.4437 1.78125C14.6702 0.449219 12.6507 0.40625 11.8773 1.78125L1.56476 19.6992C0.791324 21.0312 1.7796 22.75 3.36945 22.75H23.9515C25.5413 22.75 26.5296 21.0742 25.7562 19.6992ZM13.6819 15.9609C14.7562 15.9609 15.6585 16.8633 15.6585 17.9375C15.6585 19.0547 14.7562 19.9141 13.6819 19.9141C12.5648 19.9141 11.7054 19.0547 11.7054 17.9375C11.7054 16.8633 12.5648 15.9609 13.6819 15.9609ZM11.7913 8.87109C11.7484 8.57031 12.0062 8.3125 12.3069 8.3125H15.014C15.3148 8.3125 15.5726 8.57031 15.5296 8.87109L15.2288 14.7148C15.1859 15.0156 14.971 15.1875 14.7132 15.1875H12.6077C12.3499 15.1875 12.1351 15.0156 12.0921 14.7148L11.7913 8.87109Z" fill="#E58279"/>
</svg>
