<svg width="18" height="19" viewBox="0 0 18 19" fill="none" xmlns="http://www.w3.org/2000/svg">
<path d="M15.8906 8.58203L17.0156 7.94922C17.332 7.77344 17.5078 7.38672 17.4023 7C17.0156 5.52344 16.207 4.1875 15.1523 3.09766C14.8711 2.85156 14.4492 2.78125 14.1328 2.95703L13.0078 3.625C12.6562 3.34375 12.2695 3.13281 11.8477 2.95703V1.65625C11.8477 1.26953 11.6016 0.953125 11.2148 0.847656C9.77344 0.460938 8.19141 0.460938 6.75 0.847656C6.36328 0.953125 6.11719 1.26953 6.11719 1.65625V2.95703C5.69531 3.13281 5.30859 3.34375 4.95703 3.625L3.83203 2.95703C3.51562 2.78125 3.09375 2.85156 2.8125 3.09766C1.75781 4.1875 0.949219 5.52344 0.5625 7C0.457031 7.38672 0.632812 7.77344 0.949219 7.94922L2.07422 8.58203C2.03906 8.82812 2.03906 9.03906 2.03906 9.28516C2.03906 9.49609 2.03906 9.70703 2.07422 9.91797L0.949219 10.5859C0.632812 10.7617 0.457031 11.1484 0.5625 11.5352C0.949219 13.0117 1.75781 14.3477 2.8125 15.4375C3.09375 15.6836 3.51562 15.7539 3.83203 15.5781L4.95703 14.9102C5.30859 15.1914 5.69531 15.4023 6.11719 15.5781V16.8789C6.11719 17.2656 6.36328 17.582 6.75 17.6875C8.19141 18.0742 9.77344 18.0742 11.2148 17.6875C11.6016 17.582 11.8477 17.2656 11.8477 16.8789V15.5781C12.2695 15.4023 12.6562 15.1914 13.0078 14.9102L14.1328 15.5781C14.4492 15.7539 14.8711 15.6836 15.1523 15.4375C16.207 14.3477 17.0156 13.0117 17.4023 11.5352C17.5078 11.1484 17.332 10.7617 17.0156 10.5859L15.8906 9.91797C15.9258 9.49609 15.9258 9.03906 15.8906 8.58203ZM14.0273 10.832L15.5742 11.7109C15.293 12.4492 14.9062 13.1523 14.3789 13.75L12.832 12.8711C11.707 13.8203 11.5664 13.9258 10.1602 14.418V16.2109C9.77344 16.2812 9.38672 16.3164 8.96484 16.3164C8.57812 16.3164 8.19141 16.2812 7.80469 16.2109V14.418C6.39844 13.9258 6.22266 13.8203 5.13281 12.8711L3.58594 13.75C3.05859 13.1523 2.67188 12.4492 2.39062 11.7109L3.9375 10.832C3.65625 9.35547 3.65625 9.17969 3.9375 7.70312L2.39062 6.82422C2.67188 6.08594 3.05859 5.38281 3.58594 4.78516L5.13281 5.66406C6.25781 4.71484 6.39844 4.60938 7.80469 4.11719V2.32422C8.19141 2.25391 8.57812 2.21875 9 2.21875C9.38672 2.21875 9.77344 2.25391 10.1602 2.32422V4.11719C11.5664 4.60938 11.7422 4.71484 12.832 5.66406L14.3789 4.78516C14.9062 5.38281 15.293 6.08594 15.5742 6.82422L14.0273 7.70312C14.3086 9.17969 14.3086 9.35547 14.0273 10.832ZM9 5.875C7.13672 5.875 5.625 7.42188 5.625 9.25C5.625 11.1133 7.13672 12.625 9 12.625C10.8281 12.625 12.375 11.1133 12.375 9.25C12.375 7.42188 10.8281 5.875 9 5.875ZM9 10.9375C8.05078 10.9375 7.3125 10.1992 7.3125 9.25C7.3125 8.33594 8.05078 7.5625 9 7.5625C9.91406 7.5625 10.6875 8.33594 10.6875 9.25C10.6875 10.1992 9.91406 10.9375 9 10.9375Z" fill="#F6FCFD"/>
</svg>
