<svg version="1.2" xmlns="http://www.w3.org/2000/svg" viewBox="0 0 300 300" width="50" height="50">
	<title>New Project</title>
	<defs>
		<linearGradient id="g1" x2="1" gradientUnits="userSpaceOnUse" gradientTransform="matrix(93.429,154.786,-157.853,95.28,154.227,83)">
			<stop offset="0" stop-color="#00fe8e"/>
			<stop offset=".442" stop-color="#07e992"/>
			<stop offset=".899" stop-color="#1ae0ba"/>
		</linearGradient>
	</defs>
	<style>
		.s0 { fill: #282828;stroke: #0ce69e;paint-order:stroke fill markers;stroke-linejoin: round;stroke-width: 6 } 
		.s1 { fill: url(#g1) } 
	</style>
	<path id="Layer 1" class="s0" d="m150.5 294c-79.4 0-143.5-64.1-143.5-143.5 0-79.4 64.1-143.5 143.5-143.5 79.4 0 143.5 64.1 143.5 143.5 0 79.4-64.1 143.5-143.5 143.5z"/>
	<path id="Union" class="s1" d="m35 132.7c-7.6 0-11.8-8.8-6.9-14.6l28.9-35.1h84.2c7.6 0 11.7 8.9 6.8 14.7l-13.6 16.3c-4.8 5.9-0.7 14.7 6.9 14.7h113.7c15.5 0 24 18.1 14.2 30.1l-47.8 58.2-76.9 0.3c-13.2 0.1-20.6-15.4-12.2-25.6l36.4-44.3c4.8-5.9 0.6-14.7-7-14.7z"/>
</svg>