<svg width="19" height="17" viewBox="0 0 19 17" fill="none" xmlns="http://www.w3.org/2000/svg">
<path d="M14.9062 9.33984C14.5547 9.02344 14.0273 9.02344 13.7109 9.375C13.3594 9.69141 13.3594 10.2188 13.7109 10.5352L15.1172 11.9062H11.6719L9.59766 9.19922L8.57812 10.6055L10.582 13.2773C10.7227 13.4883 10.9688 13.5938 11.25 13.5938H15.1172L13.7461 15C13.3945 15.3164 13.3945 15.8438 13.7461 16.1602C13.8867 16.3359 14.0977 16.4062 14.3438 16.4062C14.5547 16.4062 14.7656 16.3359 14.9062 16.1602L17.7188 13.3477C18.0352 13.0312 18.0352 12.5039 17.7188 12.1523L14.9062 9.33984ZM0.84375 4.59375H4.07812L6.11719 7.33594L7.13672 5.92969L5.16797 3.25781C4.99219 3.04688 4.74609 2.90625 4.5 2.90625H0.84375C0.351562 2.90625 0 3.29297 0 3.75C0 4.24219 0.351562 4.59375 0.84375 4.59375ZM15.1172 4.59375L13.7461 6C13.3945 6.31641 13.3945 6.84375 13.7461 7.16016C13.8867 7.33594 14.0977 7.40625 14.3438 7.40625C14.5547 7.40625 14.7656 7.33594 14.9062 7.16016L17.7188 4.38281C18.0352 4.03125 18.0352 3.50391 17.7188 3.1875L14.9062 0.375C14.5898 0.0234375 14.0625 0.0234375 13.7461 0.375C13.3945 0.691406 13.3945 1.21875 13.7461 1.53516L15.1172 2.90625H11.25C10.9688 2.90625 10.7227 3.04688 10.5469 3.25781L4.07812 11.9062H0.84375C0.351562 11.9062 0 12.293 0 12.75C0 13.2422 0.351562 13.5938 0.84375 13.5938H4.5C4.74609 13.5938 4.99219 13.4883 5.16797 13.2773L11.6719 4.59375H15.1172Z" fill="#F6FCFD"/>
</svg>
