<svg fill="none" xmlns="http://www.w3.org/2000/svg" viewBox="16 14 44 44"> <g filter="url(#filter0_ddd_82_1398)"> <rect x="16" y="14" width="44" height="44" rx="22" fill="white"></rect> </g> <path d="M46.2101 28.668C44.4257 28.668 42.4805 29.5824 40.4245 31.3835C39.4491 32.2369 38.6067 33.1513 37.975 33.8828C37.975 33.8828 37.975 33.8828 37.9805 33.8884V33.8828C37.9805 33.8828 38.978 34.969 40.0809 36.1328C40.6738 35.429 41.5273 34.4703 42.5082 33.6057C44.337 32.0041 45.5285 31.6661 46.2101 31.6661C48.776 31.6661 50.8597 33.6999 50.8597 36.1993C50.8597 38.682 48.7704 40.7159 46.2101 40.7325C46.0937 40.7325 45.9441 40.7159 45.7557 40.6771C46.5038 40.9985 47.3074 41.2313 48.0722 41.2313C52.7716 41.2313 53.6916 38.1667 53.7526 37.945C53.8911 37.3853 53.9631 36.7978 53.9631 36.1938C53.9631 32.0485 50.4829 28.668 46.2101 28.668Z" fill="url(#paint0_linear_82_1398)"></path> <path d="M29.794 43.7391C31.5785 43.7391 33.5237 42.8247 35.5797 41.0236C36.5551 40.1702 37.3974 39.2558 38.0292 38.5242C38.0292 38.5242 38.0292 38.5242 38.0236 38.5187V38.5242C38.0236 38.5242 37.0261 37.438 35.9233 36.2743C35.3303 36.9781 34.4769 37.9368 33.496 38.8013C31.6672 40.4029 30.4757 40.741 29.794 40.741C27.2282 40.741 25.1444 38.7071 25.1444 36.2078C25.1444 33.725 27.2337 31.6912 29.794 31.6745C29.9104 31.6745 30.06 31.6912 30.2485 31.73C29.5003 31.4085 28.6967 31.1758 27.932 31.1758C23.2325 31.1758 22.3126 34.2404 22.2516 34.4621C22.1131 35.0218 22.041 35.6092 22.041 36.2133C22.041 40.3586 25.5213 43.7391 29.794 43.7391Z" fill="url(#paint1_linear_82_1398)"></path> <path d="M48.0613 41.1671C45.6562 41.1061 43.1568 39.2108 42.647 38.7397C41.328 37.5205 38.2856 34.2231 38.0473 33.9627C35.8194 31.4689 32.7991 28.6758 29.7955 28.6758H29.7899H29.7844C26.1379 28.6924 23.0677 31.1641 22.2531 34.4614C22.314 34.2453 23.5166 31.1197 27.9279 31.2306C30.333 31.2915 32.8435 33.2145 33.3589 33.6856C34.6778 34.9048 37.7203 38.2022 37.9586 38.4626C40.1864 40.9565 43.2067 43.7495 46.2104 43.7495H46.2159H46.2214C49.868 43.7329 52.9381 41.2613 53.7528 37.9639C53.6863 38.1745 52.4782 41.2723 48.0613 41.1671Z" fill="#29ABE2"></path> <defs> <filter id="filter0_ddd_82_1398" x="0" y="0" width="76" height="76" filterUnits="userSpaceOnUse" color-interpolation-filters="sRGB"> <feFlood flood-opacity="0" result="BackgroundImageFix"></feFlood> <feColorMatrix in="SourceAlpha" type="matrix" values="0 0 0 0 0 0 0 0 0 0 0 0 0 0 0 0 0 0 127 0" result="hardAlpha"></feColorMatrix> <feOffset dy="2"></feOffset> <feGaussianBlur stdDeviation="8"></feGaussianBlur> <feColorMatrix type="matrix" values="0 0 0 0 0.1294 0 0 0 0 0.1686 0 0 0 0 0.2118 0 0 0 0.08 0"></feColorMatrix> <feBlend mode="normal" in2="BackgroundImageFix" result="effect1_dropShadow_82_1398"></feBlend> <feColorMatrix in="SourceAlpha" type="matrix" values="0 0 0 0 0 0 0 0 0 0 0 0 0 0 0 0 0 0 127 0" result="hardAlpha"></feColorMatrix> <feOffset dy="1"></feOffset> <feGaussianBlur stdDeviation="1.5"></feGaussianBlur> <feColorMatrix type="matrix" values="0 0 0 0 0.2511 0 0 0 0 0.2606 0 0 0 0 0.27 0 0 0 0.12 0"></feColorMatrix> <feBlend mode="normal" in2="effect1_dropShadow_82_1398" result="effect2_dropShadow_82_1398"></feBlend> <feColorMatrix in="SourceAlpha" type="matrix" values="0 0 0 0 0 0 0 0 0 0 0 0 0 0 0 0 0 0 127 0" result="hardAlpha"></feColorMatrix> <feOffset></feOffset> <feColorMatrix type="matrix" values="0 0 0 0 0.0242 0 0 0 0 0.1728 0 0 0 0 0.3198 0 0 0 0.1 0"></feColorMatrix> <feBlend mode="normal" in2="effect2_dropShadow_82_1398" result="effect3_dropShadow_82_1398"></feBlend> <feBlend mode="normal" in="SourceGraphic" in2="effect3_dropShadow_82_1398" result="shape"></feBlend> </filter> <linearGradient id="paint0_linear_82_1398" x1="42.1743" y1="29.6619" x2="52.7154" y2="40.5775" gradientUnits="userSpaceOnUse"> <stop offset="0.21" stop-color="#F15A24"></stop> <stop offset="0.6841" stop-color="#FBB03B"></stop> </linearGradient> <linearGradient id="paint1_linear_82_1398" x1="33.8299" y1="42.7452" x2="23.2888" y2="31.8295" gradientUnits="userSpaceOnUse"> <stop offset="0.21" stop-color="#ED1E79"></stop> <stop offset="0.8929" stop-color="#522785"></stop> </linearGradient> </defs> </svg>
