<svg width="44" height="44" viewBox="0 0 44 44" fill="none" xmlns="http://www.w3.org/2000/svg">
<rect width="44" height="44" rx="22" fill="black"/>
<path d="M28.8816 30.4534L28.4011 27.6448C27.3445 28.9151 25.9438 29.854 24.3667 30.3489C21.3668 31.2946 18.2362 30.5184 16.0396 28.5779C15.9325 28.4827 15.8276 28.385 15.7249 28.2848C15.6223 28.1846 15.5236 28.0834 15.429 27.9813L16.8728 27.1452L11.6421 25.2109L10.7184 30.7089L12.0179 29.9564C12.1051 30.0646 12.1924 30.1725 12.2831 30.2778C12.3738 30.3832 12.4684 30.4881 12.5634 30.5908C15.7494 34.0422 20.7552 35.5501 25.5337 34.0441C28.1653 33.2182 30.4482 31.5428 32.0243 29.2807L28.8816 30.4534Z" fill="white"/>
<path d="M10.9949 24.0941L13.6568 25.0781C13.6127 24.9573 13.5699 24.8352 13.5309 24.7118C12.11 20.2109 14.5715 15.4164 19.0357 13.9294C19.0808 13.9143 19.1251 13.8973 19.1707 13.8828C19.2625 13.854 19.3545 13.8292 19.4465 13.8033C19.5834 13.7657 19.7208 13.7304 19.8577 13.6993L19.8607 15.3572L24.1516 11.7965L19.8484 8.25L19.8511 9.75491C19.7142 9.77657 19.5766 9.80351 19.4397 9.83026C19.3029 9.85702 19.1656 9.88509 19.0286 9.91598C18.686 9.99323 18.3442 10.0816 18.0036 10.189C11.4117 12.266 7.75387 19.29 9.83326 25.8778C10.0005 26.404 10.202 26.9188 10.4365 27.4187L10.9949 24.0941Z" fill="white"/>
<path d="M33.5841 26.2385C33.6302 26.1066 33.6717 25.9729 33.7138 25.8387C34.4793 23.4013 34.4758 20.7875 33.7038 18.3521C32.1334 13.3773 27.7395 10.076 22.8433 9.65234L25.4413 11.7946L23.2516 13.6111C26.326 14.1492 29.0024 16.337 30.0061 19.5175C30.449 20.9146 30.5269 22.4017 30.2323 23.8374C30.2036 23.978 30.1712 24.1175 30.1353 24.256C30.1002 24.3932 30.0614 24.5288 30.0199 24.6639L28.5845 23.8387L29.5241 29.3329L34.7501 27.3834L33.4368 26.6281C33.4872 26.4989 33.5375 26.3696 33.5841 26.2385Z" fill="white"/>
</svg>
